<svg width="86" height="60" viewBox="0 0 86 60" fill="none" xmlns="http://www.w3.org/2000/svg">
<g clip-path="url(#clip0_385_2)">
<path d="M83.6687 9.3692C82.686 5.68113 79.7907 2.77694 76.1138 1.79129C69.4498 2.71105e-06 42.7273 1.78814e-06 42.7273 1.78814e-06C42.7273 1.78814e-06 16.0049 2.71105e-06 9.34072 1.79129C5.66408 2.77694 2.76832 5.68113 1.78567 9.3692C0 16.0535 0 30 0 30C0 30 0 43.9463 1.78567 50.6312C2.76832 54.3189 5.66408 57.223 9.34072 58.2091C16.0049 60 42.7273 60 42.7273 60C42.7273 60 69.4498 60 76.1138 58.2091C79.7907 57.223 82.686 54.3189 83.6687 50.6312C85.4545 43.9463 85.4545 30 85.4545 30C85.4545 30 85.4545 16.0535 83.6687 9.3692Z" fill="#ED1D24"/>
<path d="M33.9873 42.6621L56.322 30.0004L33.9873 17.3375V42.6621Z" fill="white"/>
</g>
<defs>
<clipPath id="clip0_385_2">
<rect width="85.4546" height="60" fill="white"/>
</clipPath>
</defs>
</svg>
