<svg width="60" height="60" viewBox="0 0 60 60" fill="none" xmlns="http://www.w3.org/2000/svg">
<g clip-path="url(#clip0_384_7)">
<path d="M47.4783 26.6471C37.9538 20.9908 22.2433 20.4708 13.151 23.2303C11.6909 23.6735 10.1468 22.8489 9.70449 21.3892C9.26192 19.9281 10.0853 18.3851 11.5465 17.9413C21.9839 14.7731 39.3345 15.385 50.2992 21.8938C51.6125 22.6735 52.0433 24.3696 51.265 25.6807C50.4859 26.9939 48.7884 27.4268 47.4783 26.6471ZM47.1664 35.025C46.4981 36.1093 45.0804 36.4494 43.9976 35.7836C36.057 30.9025 23.9488 29.4886 14.5545 32.3402C13.3362 32.7084 12.0495 32.0214 11.6794 30.8055C11.3124 29.5873 11.9996 28.3029 13.2156 27.9324C23.9473 24.6759 37.2884 26.2532 46.4085 31.8578C47.4914 32.5248 47.8322 33.9432 47.1664 35.025ZM43.5509 43.0707C43.0199 43.9415 41.8862 44.2143 41.0186 43.6835C34.0799 39.4429 25.3465 38.4852 15.0613 40.8344C14.0701 41.0617 13.0823 40.4406 12.8563 39.4495C12.6293 38.4588 13.248 37.4708 14.2413 37.2447C25.4967 34.6716 35.1517 35.779 42.9398 40.538C43.8081 41.0684 44.0815 42.2027 43.5509 43.0707ZM29.9999 0.452529C13.6814 0.452529 0.452148 13.6815 0.452148 29.9998C0.452148 46.32 13.6814 59.5479 29.9999 59.5479C46.3189 59.5479 59.5475 46.32 59.5475 29.9998C59.5475 13.6815 46.3189 0.452529 29.9999 0.452529Z" fill="#1ED760"/>
</g>
<defs>
<clipPath id="clip0_384_7">
<rect width="60" height="60" fill="white"/>
</clipPath>
</defs>
</svg>
