<svg width="43" height="30" viewBox="0 0 43 30" fill="none" xmlns="http://www.w3.org/2000/svg">
<g clip-path="url(#clip0_321_20)">
<path d="M41.3059 4.6846C40.8207 2.84057 39.3914 1.38847 37.5761 0.895647C34.2862 1.35552e-06 21.0937 8.9407e-07 21.0937 8.9407e-07C21.0937 8.9407e-07 7.90136 1.35552e-06 4.61136 0.895647C2.79626 1.38847 1.36667 2.84057 0.881558 4.6846C0 8.02677 0 15 0 15C0 15 0 21.9731 0.881558 25.3156C1.36667 27.1594 2.79626 28.6115 4.61136 29.1046C7.90136 30 21.0937 30 21.0937 30C21.0937 30 34.2862 30 37.5761 29.1046C39.3914 28.6115 40.8207 27.1594 41.3059 25.3156C42.1875 21.9731 42.1875 15 42.1875 15C42.1875 15 42.1875 8.02677 41.3059 4.6846Z" fill="black"/>
<path d="M16.7793 21.3311L27.8056 15.0003L16.7793 8.66882V21.3311Z" fill="white"/>
</g>
<defs>
<clipPath id="clip0_321_20">
<rect width="42.1875" height="30" fill="white"/>
</clipPath>
</defs>
</svg>
