<svg width="30" height="35" viewBox="0 0 30 35" fill="none" xmlns="http://www.w3.org/2000/svg">
<g clip-path="url(#clip0_321_5)">
<path d="M25.519 6.88539C23.6655 5.67909 22.3289 3.74815 21.9113 1.4984C21.8216 1.01243 21.7715 0.511816 21.7715 0H15.8573L15.8478 23.6676C15.7486 26.318 13.5637 28.4454 10.8862 28.4454C10.0535 28.4454 9.27 28.2378 8.57969 27.875C6.99715 27.0435 5.91423 25.3875 5.91423 23.4815C5.91423 20.7441 8.14479 18.5167 10.8853 18.5167C11.397 18.5167 11.888 18.6012 12.3522 18.7459V12.717C11.8716 12.6515 11.3832 12.611 10.8853 12.611C4.88308 12.611 0 17.4871 0 23.4815C0 27.159 1.83968 30.4134 4.64751 32.3814C6.41557 33.6213 8.56674 34.3511 10.8862 34.3511C16.8884 34.3511 21.7715 29.4751 21.7715 23.4815V11.4797C24.0909 13.1418 26.9333 14.1215 30 14.1215V8.21577C28.3484 8.21577 26.8099 7.7255 25.519 6.88539Z" fill="black"/>
</g>
<defs>
<clipPath id="clip0_321_5">
<rect width="30" height="34.3511" fill="white"/>
</clipPath>
</defs>
</svg>
